<svg xmlns="http://www.w3.org/2000/svg" width="124" height="40" viewBox="0 0 124 40">
    <g fill="none" fill-rule="evenodd">
        <path fill="#323838" fill-rule="nonzero" d="M42.647 9.13h3.969v19.143h5.319V31h-9.288V9.13zm14.709 0h4.266L65.996 31h-3.699l-.864-5.049h-3.807L56.735 31h-3.753l4.374-21.87zm3.645 14.283l-1.485-9.18-1.485 9.18h2.97zM68.258 9.13h2.781l5.319 12.474V9.13h3.294V31h-2.646L71.66 17.932V31h-3.402V9.13zm18.057 0h4.266L94.955 31h-3.699l-.864-5.049h-3.807L85.694 31h-3.753l4.374-21.87zm3.645 14.283l-1.485-9.18-1.485 9.18h2.97zM97.217 9.13h5.265c2.304 0 4.023.436 5.157 1.31 1.134.873 1.701 2.371 1.701 4.495 0 1.386-.202 2.515-.608 3.388-.405.874-1.102 1.508-2.092 1.904L109.691 31h-3.996l-2.619-10.017h-1.89V31h-3.969V9.13zm5.238 9.369c1.134 0 1.94-.261 2.416-.783.478-.522.716-1.377.716-2.565 0-1.152-.211-1.989-.635-2.511-.423-.522-1.183-.783-2.281-.783h-1.485v6.642h1.269zm15.438 12.798c-1.98 0-3.46-.558-4.442-1.674-.98-1.116-1.516-2.781-1.606-4.995l3.429-.675c.054 1.386.274 2.443.662 3.172.387.73.994 1.094 1.822 1.094.612 0 1.066-.184 1.364-.553.297-.37.445-.869.445-1.499 0-.864-.193-1.597-.58-2.2-.388-.604-.995-1.265-1.823-1.985l-2.754-2.403c-.846-.72-1.48-1.494-1.903-2.322-.424-.828-.635-1.818-.635-2.97 0-1.71.5-3.037 1.499-3.982.999-.946 2.38-1.418 4.144-1.418 1.89 0 3.244.535 4.064 1.606.819 1.072 1.291 2.516 1.417 4.334l-3.429.594c-.054-1.188-.22-2.083-.5-2.686-.279-.604-.823-.905-1.633-.905-.576 0-1.026.193-1.35.58-.324.388-.486.878-.486 1.472 0 .702.14 1.291.418 1.768.28.478.734.986 1.364 1.526l2.727 2.403c1.026.882 1.827 1.827 2.403 2.835.576 1.008.864 2.178.864 3.51 0 1.044-.23 1.971-.688 2.781a4.909 4.909 0 0 1-1.931 1.904c-.828.459-1.782.688-2.862.688z"/>
        <path fill="#FFA400" d="M29.965 20.365c0 7.737-4.76 14.01-10.63 14.01-5.871 0-10.63-6.273-10.63-14.01s4.759-14.01 10.63-14.01c5.87 0 10.63 6.273 10.63 14.01z"/>
        <path fill="#323838" d="M11.073 21.353l.535.837c-.234-.24-.4-.525-.535-.837zm1.909-8.503c-.016-.006-.033-.011-.048-.018l-.51 1.41c.229-.447.408-.914.558-1.392zM9.8 18.994c-.067.69-.022 1.377.056 2.063-.241-.521-.249-1.493-.056-2.063zm14.07-8.555c-.05-.04-.095-.073-.137-.109-.267-.23-.526-.47-.8-.69-.5-.399-1.048-.724-1.632-.987a7.815 7.815 0 0 0-3.564-.68c-.2.008-.407.007-.599.084-.254.103-.505.214-.757.325a.874.874 0 0 0-.345.3 7.686 7.686 0 0 0-.917 1.623c-.217.511-.414 1.032-.618 1.548-.01.025-.008.054-.013.085.046.02.085.038.126.052.304.11.61.211.912.33.173.066.33.075.515.024.609-.164 1.235-.212 1.862-.231.769-.024 1.535.01 2.297.096.39.044.777.09 1.162.154.485.08.969.174 1.45.274.349.073.7.15 1.04.25.433.129.86.144 1.297.027a7.47 7.47 0 0 1 .747-.166 8.62 8.62 0 0 1 1.732-.086c.049.002.099-.008.158-.014-.018-.057-.026-.094-.04-.13a5.634 5.634 0 0 0-2.412-2.801 1.183 1.183 0 0 0-.489-.164.769.769 0 0 0-.798.43c-.067.137-.112.285-.178.456zm2.954 14.242c.051-.071.095-.128.132-.189.356-.582.657-1.192.905-1.828a9.222 9.222 0 0 0 .518-1.839 6.5 6.5 0 0 0 .068-1.876c-.023-.182-.043-.365-.068-.546-.017-.12-.033-.13-.148-.12-.404.036-.8-.003-1.189-.113-.265-.076-.525-.17-.752-.331-.336-.238-.535-.578-.675-.955-.212-.568-.293-1.16-.32-1.761-.01-.183-.012-.368-.029-.55-.031-.347-.215-.593-.524-.746a.477.477 0 0 0-.338-.045 3.098 3.098 0 0 0-.315.103c-.116.045-.196.117-.185.26.005.05-.016.104-.021.157a5.619 5.619 0 0 1-.47 1.757c-.218.48-.51.908-.906 1.26-.524.467-1.14.757-1.806.947-.409.117-.825.19-1.253.212a4.917 4.917 0 0 1-1.251-.078c-.503-.103-.913-.342-1.209-.777a4.035 4.035 0 0 1-.6-1.464c-.102-.489-.13-.986-.161-1.483-.012-.183-.014-.37-.057-.546-.065-.267-.2-.504-.485-.585-.548-.154-1.1-.294-1.65-.44-.111-.028-.112-.026-.171.073-.16.265-.32.529-.477.795a.667.667 0 0 0-.065.16c-.06.21-.111.42-.173.629-.156.524-.332 1.04-.592 1.524-.117.218-.25.425-.423.604a.943.943 0 0 1-.446.282c-.06.015-.12.029-.195-.018l.09-.057c.072-.047.15-.088.217-.142.224-.178.372-.416.501-.666.228-.44.369-.913.484-1.393.009-.036.013-.072.02-.108a.506.506 0 0 0-.16.125 4.106 4.106 0 0 1-.76.646.533.533 0 0 0-.181.2c-.227.415-.46.827-.685 1.243a.455.455 0 0 0-.056.219c.008.284.018.57.046.853.054.544.161 1.08.32 1.604.218.714.523 1.392.907 2.033.213.358.446.699.743.995.256.256.5.525.744.792.089.098.186.179.305.237.135.066.266.14.393.218.331.203.64.433.843.777a.43.43 0 0 0 .226.188c.546.221 1.092.44 1.632.674.647.281 1.276.598 1.865.989.242.16.472.336.672.549a.985.985 0 0 1 .268.456c.015.06.029.124-.039.184-.026-.023-.056-.045-.081-.07-.08-.083-.156-.173-.24-.25-.394-.365-.846-.64-1.32-.884-.638-.326-1.31-.57-1.994-.777-.114-.034-.23-.064-.356-.099.012.022.015.033.021.037.025.015.05.029.077.04a9.398 9.398 0 0 1 1.473.8 6.285 6.285 0 0 1 1.421 1.268c.031.04.058.083.087.124a.65.65 0 0 0-.026.024 9.165 9.165 0 0 0-1.199-.923c-.55-.355-1.204-.702-1.344-.705.128.078.25.146.366.223.33.217.659.437.986.659.058.038.103.094.154.142a.763.763 0 0 1-.02.032l-.481-.151-.01.029c.041.022.082.047.123.07a10.98 10.98 0 0 1 1.933 1.27c.297.248.57.52.81.825.034.041.08.08.068.16-.356-.145-.695-.304-1.059-.402a12.2 12.2 0 0 0 2.713 2.076c.017-.064.034-.124.047-.185.056-.259.11-.52.167-.778.011-.05.005-.11.085-.14.058.09.12.18.175.275.445.761.836 1.544.948 2.44.29-.63.568-1.262.688-1.956.032.048.05.096.063.145l.18.716c.012.044.03.085.053.15.061-.072.106-.122.147-.174.316-.4.586-.826.807-1.286.257-.537.432-1.097.462-1.694.022-.425.122-.833.27-1.227.162-.434.348-.859.526-1.287.124-.3.255-.597.32-.915a.921.921 0 0 0-.013-.487c-.037-.11-.104-.163-.225-.16-.265.004-.53 0-.796-.004-.638-.01-1.274.04-1.906.11-.584.065-1.164.169-1.745.255-.12.017-.238.041-.357.052a6.7 6.7 0 0 1-1.285.009 4.95 4.95 0 0 1-1.886-.57c-.866-.47-1.525-1.156-2.044-1.986-.275-.44-.5-.903-.678-1.39-.016-.044-.038-.084-.063-.136-.076.035-.138.06-.196.093-.263.15-.488.345-.685.574-.028.034-.045.088-.119.07 0-.04-.006-.079.002-.115.037-.165.066-.332.12-.492.07-.218.185-.415.358-.57.297-.266.65-.321 1.029-.27.388.054.742.207 1.085.386.02.01.033.03.079.07l-.185.003c-.207.002-.415 0-.621.008-.122.005-.144.038-.122.157.019.11.04.22.07.326a5.357 5.357 0 0 0 1.133 2.083 4.22 4.22 0 0 0 1.837 1.243 4.56 4.56 0 0 0 1.797.222c.456-.032.9-.107 1.33-.262.75-.27 1.323-.745 1.67-1.473.261-.544.345-1.123.329-1.72-.002-.084-.05-.133-.107-.178l-.51-.405c-.56-.445-1.117-.891-1.678-1.334a.21.21 0 0 1-.089-.199c.016-.19.061-.372.168-.533.099-.15.232-.242.421-.237.125.004.251.008.376-.002a1.51 1.51 0 0 0 .28-.057c.152-.043.3-.107.455-.14a4.75 4.75 0 0 1 1.554-.067c.274.033.547.072.802.182a.846.846 0 0 0 .406.085c.221-.015.363.104.462.286.068.124.096.261.111.402a.335.335 0 0 1-.134.325c-.646.53-1.286 1.065-1.929 1.599-.254.21-.256.21-.212.536.114.856.413 1.637.939 2.325.19.25.403.48.668.695zm-16.142 8.984c.047.099.088.2.14.295.143.265.323.504.513.735.288.35.572.704.862 1.064-.024-.007-.048-.01-.07-.02a16.598 16.598 0 0 1-2.081-1.224c-.518-.364-.952-.815-1.348-1.305-.625-.77-1.164-1.6-1.663-2.457-.32-.551-.62-1.114-.928-1.671a.19.19 0 0 0-.079-.08c-.004.035-.014.07-.01.103.042.375.126.742.228 1.105.125.447.256.891.315 1.353.006.044.017.087.014.13-.002.027-.024.052-.049.102-.033-.065-.055-.1-.07-.14-.31-.833-.782-1.572-1.34-2.257-.43-.528-.877-1.04-1.322-1.555a3.355 3.355 0 0 1-.441-.625c-.39-.739-.783-1.477-1.043-2.275-.154-.477-.277-.964-.405-1.45-.109-.412-.237-.815-.46-1.183-.057-.095-.125-.16-.243-.145-.115.015-.179.085-.208.194l-.155.555c-.019-.033-.039-.058-.05-.086a21.661 21.661 0 0 1-.627-1.988c-.105-.393-.1-.786-.077-1.18.025-.459.092-.917.23-1.36a5.37 5.37 0 0 1 .292-.767c.092-.188.23-.358.364-.522.29-.353.593-.698.89-1.047.03-.034.057-.068.085-.103a.841.841 0 0 0-.027-.03l-.357.217-.024-.023c.424-.87.922-1.7 1.455-2.508a36.993 36.993 0 0 1 1.72-2.37c-.14.038-.35.234-1.119 1.03-.35.362-.667.753-.964 1.161l-.025-.015.274-.72c-.072.003-.096.048-.126.08-.367.417-.739.83-1.098 1.252a29.117 29.117 0 0 0-1.484 1.91c-.01.015-.024.028-.051.06 0-.045-.005-.07 0-.093.157-.59.383-1.154.65-1.702.425-.872.952-1.68 1.546-2.444a15.005 15.005 0 0 1 2.038-2.151l.096-.089c.01-.009.017-.021.015-.053-.062.03-.125.058-.185.09a4.666 4.666 0 0 1-2.224.553 3.617 3.617 0 0 1-.972-.132c-.008-.003-.014-.011-.035-.03.156-.051.302-.095.447-.146.304-.109.61-.213.908-.334.388-.157.707-.415.986-.722a50.81 50.81 0 0 1 1.9-2.01c.533-.525 1.074-1.042 1.694-1.467.645-.443 1.332-.797 2.085-1.018a5.532 5.532 0 0 1 1.308-.228.622.622 0 0 0 .1-.013c.013-.002.025-.011.07-.032-.137-.019-.243-.036-.35-.047A18.976 18.976 0 0 1 8.55 3.62c-.851-.161-1.682-.39-2.472-.749-.614-.28-1.187-.622-1.691-1.076a3.965 3.965 0 0 1-.825-1C3.547.768 3.537.742 3.522.71c.078.028.077.029.18.13a4.81 4.81 0 0 0 .535.463 7.98 7.98 0 0 0 .587.397 8.3 8.3 0 0 0 .835.431c.076.034.151.066.227.097.072.03.144.056.216.083.072.028.144.056.217.082.077.026.156.05.234.074A5.933 5.933 0 0 0 7 2.592c.075.019.15.037.225.053.08.018.16.033.241.05l.227.044a5.571 5.571 0 0 0 .473.067c.074.007.148.01.222.015l.013-.034-.12-.093c-.586-.464-.857-1.075-.847-1.819a.984.984 0 0 1 .147-.48c.066-.115.143-.226.217-.342.065.046.04.098.036.141-.02.373.046.732.156 1.086.156.502.501.825.986 1.006.503.186 1.028.263 1.56.284.37.015.742 0 1.114-.005a.262.262 0 0 0 .131-.041c-.597-.266-1.192-.523-1.76-.841.47.116.942.236 1.414.347.479.113.961.207 1.46.256-.053-.031-.104-.066-.158-.093a5.591 5.591 0 0 1-.834-.494l-.081-.065c.068.01.107.012.145.022.456.124.922.204 1.388.28.844.137 1.692.23 2.542.31.524.05 1.048.09 1.573.122.874.052 1.736.182 2.579.426.8.231 1.562.556 2.274.991.05.03.1.056.167.07-.015-.024-.027-.052-.046-.074a3.164 3.164 0 0 0-.811-.623c-.5-.281-1.039-.462-1.594-.598a12.844 12.844 0 0 0-2.03-.305.113.113 0 0 1-.073-.029c.043-.01.086-.023.13-.03a17.64 17.64 0 0 1 2.06-.178c.663-.02 1.322.013 1.978.099.74.096 1.46.273 2.137.598.465.223.887.508 1.233.896.045.05.097.093.146.14-.017-.148-.061-.214-.473-.732.14.106.285.208.423.318a6.309 6.309 0 0 1 1.522 1.749c.387.673.61 1.395.663 2.17.004.058-.005.12.09.132.011-.027.031-.055.033-.084.023-.24.044-.481.064-.721.005-.06.008-.12.029-.183.073.117.08.252.118.382.077-.21-.062-.97-.262-1.503a4.49 4.49 0 0 0-.777-1.315c-.334-.396-.735-.717-1.148-1.028.15.084.302.165.45.254a9.89 9.89 0 0 1 1.692 1.26c.63.59 1.16 1.253 1.527 2.04.28.598.434 1.227.46 1.887a.416.416 0 0 0 .026.136c.118-.5.133-1.008.15-1.52.332.745.539 1.52.581 2.336.042.818-.081 1.606-.449 2.372.09-.017.12-.064.153-.107.137-.179.234-.377.317-.584a.537.537 0 0 1 .075-.138c.065.59.011 1.143-.471 1.56l.309.483c.01.017.024.032.028.05.037.162.152.218.301.244.123.021.243.06.382.096.002.196.015.388.004.579-.018.313-.05.625-.083.937a.54.54 0 0 0 .034.252c.095.268.187.537.267.81.09.311.173.624.208.947.048.438.036.87-.114 1.287-.056.153-.142.295-.223.438-.033.058-.06.103-.017.17a.229.229 0 0 1 .027.125c-.015.304.057.595.128.885.133.548.195 1.104.217 1.665.03.806-.066 1.6-.223 2.39a19.603 19.603 0 0 1-.723 2.608 77.83 77.83 0 0 1-.566 1.582c-.058.157-.146.304-.22.456a9.506 9.506 0 0 0-.512 1.291c-.01.031-.025.06-.05.12l-.122-.248c-.049-.1-.09-.112-.171-.032a1.778 1.778 0 0 0-.371.532c-.139.314-.268.631-.39.952-.63 1.665-1.475 3.207-2.588 4.6a26.031 26.031 0 0 1-2.032 2.222 16.838 16.838 0 0 0-1.625 1.827c-.026.034-.055.065-.092.108l-.143-.152a28.421 28.421 0 0 0-1.577-1.493 22.914 22.914 0 0 0-1.91-1.504 19.206 19.206 0 0 0-2.191-1.35 3.1 3.1 0 0 0-.843-.3 1.698 1.698 0 0 0-1.15.162c-.174.092-.244.239-.217.434l.016.1c-1.322-.422-2.522-1.024-3.46-2.07l-.038.03z"/>
    </g>
</svg>
